{
  "asset": {
    "version": "2.0",
    "generator": "GLTFExporter"
  },
  "scenes": [
    {
      "nodes": [
        0,
        1,
        2,
        3,
        4,
        5
      ],
      "name": "AuxScene"
    }
  ],
  "scene": 0,
  "nodes": [
    {
      "mesh": 0
    },
    {
      "mesh": 1
    },
    {
      "mesh": 2
    },
    {
      "mesh": 3
    },
    {
      "translation": [
        0,
        0,
        -0.5
      ],
      "mesh": 4
    },
    {
      "translation": [
        465.83032735173816,
        444.18459345483194,
        624.2442994522837
      ],
      "extensions": {
        "KHR_lights_punctual": {
          "light": 0
        }
      }
    }
  ],
  "bufferViews": [
    {
      "buffer": 0,
      "byteOffset": 0,
      "byteLength": 484920,
      "target": 34962,
      "byteStride": 12
    },
    {
      "buffer": 0,
      "byteOffset": 484920,
      "byteLength": 484920,
      "target": 34962,
      "byteStride": 12
    },
    {
      "buffer": 0,
      "byteOffset": 969840,
      "byteLength": 484920,
      "target": 34962,
      "byteStride": 12
    },
    {
      "buffer": 0,
      "byteOffset": 1454760,
      "byteLength": 65076,
      "target": 34963
    },
    {
      "buffer": 0,
      "byteOffset": 1519836,
      "byteLength": 49296,
      "target": 34963
    },
    {
      "buffer": 0,
      "byteOffset": 1569132,
      "byteLength": 159280,
      "target": 34963
    },
    {
      "buffer": 0,
      "byteOffset": 1728412,
      "byteLength": 312048,
      "target": 34962,
      "byteStride": 12
    },
    {
      "buffer": 0,
      "byteOffset": 2040460,
      "byteLength": 52008,
      "target": 34963
    },
    {
      "buffer": 0,
      "byteOffset": 2092468,
      "byteLength": 13068,
      "target": 34962,
      "byteStride": 12
    },
    {
      "buffer": 0,
      "byteOffset": 2105536,
      "byteLength": 13068,
      "target": 34962,
      "byteStride": 12
    },
    {
      "buffer": 0,
      "byteOffset": 2118604,
      "byteLength": 8712,
      "target": 34962,
      "byteStride": 8
    },
    {
      "buffer": 0,
      "byteOffset": 2127316,
      "byteLength": 12288,
      "target": 34963
    }
  ],
  "buffers": [
    {
      "byteLength": 2139604,
      "uri": "data:application/octet-stream;base64,"
    }
  ],
  "accessors": [
    {
      "bufferView": 0,
      "componentType": 5126,
      "count": 40410,
      "max": [
        353.0157165527344,
        320.4786682128906,
        185
      ],
      "min": [
        -136.7349090576172,
        -219.02731323242188,
        0
      ],
      "type": "VEC3"
    },
    {
      "bufferView": 1,
      "componentType": 5126,
      "count": 40410,
      "max": [
        1,
        1,
        1
      ],
      "min": [
        -1,
        -1,
        -1
      ],
      "type": "VEC3"
    },
    {
      "bufferView": 2,
      "componentType": 5126,
      "count": 40410,
      "max": [
        1,
        1,
        1
      ],
      "min": [
        0.8999999761581421,
        0.800000011920929,
        0.699999988079071
      ],
      "type": "VEC3"
    },
    {
      "bufferView": 3,
      "componentType": 5123,
      "count": 32538,
      "max": [
        40409
      ],
      "min": [
        0
      ],
      "type": "SCALAR"
    },
    {
      "bufferView": 4,
      "componentType": 5123,
      "count": 24648,
      "max": [
        23069
      ],
      "min": [
        1620
      ],
      "type": "SCALAR"
    },
    {
      "bufferView": 5,
      "componentType": 5123,
      "count": 79640,
      "max": [
        40409
      ],
      "min": [
        0
      ],
      "type": "SCALAR"
    },
    {
      "bufferView": 6,
      "componentType": 5126,
      "count": 26004,
      "max": [
        353.0157165527344,
        320.4786682128906,
        185
      ],
      "min": [
        -136.7349090576172,
        -219.02731323242188,
        0
      ],
      "type": "VEC3"
    },
    {
      "bufferView": 7,
      "componentType": 5123,
      "count": 26004,
      "max": [
        26003
      ],
      "min": [
        0
      ],
      "type": "SCALAR"
    },
    {
      "bufferView": 8,
      "componentType": 5126,
      "count": 1089,
      "max": [
        400,
        400,
        0
      ],
      "min": [
        -400,
        -400,
        0
      ],
      "type": "VEC3"
    },
    {
      "bufferView": 9,
      "componentType": 5126,
      "count": 1089,
      "max": [
        0,
        0,
        1
      ],
      "min": [
        0,
        0,
        1
      ],
      "type": "VEC3"
    },
    {
      "bufferView": 10,
      "componentType": 5126,
      "count": 1089,
      "max": [
        1,
        1
      ],
      "min": [
        0,
        0
      ],
      "type": "VEC2"
    },
    {
      "bufferView": 11,
      "componentType": 5123,
      "count": 6144,
      "max": [
        1088
      ],
      "min": [
        0
      ],
      "type": "SCALAR"
    }
  ],
  "materials": [
    {
      "pbrMetallicRoughness": {
        "metallicFactor": 0.5,
        "roughnessFactor": 0.5
      }
    },
    {
      "pbrMetallicRoughness": {
        "baseColorFactor": [
          0.8666666666666667,
          0.8666666666666667,
          0.8666666666666667,
          1
        ],
        "metallicFactor": 0.5,
        "roughnessFactor": 0.5
      }
    },
    {
      "pbrMetallicRoughness": {
        "baseColorFactor": [
          0.8980392156862745,
          0.8980392156862745,
          1,
          1
        ],
        "metallicFactor": 0,
        "roughnessFactor": 0
      }
    },
    {
      "pbrMetallicRoughness": {
        "baseColorFactor": [
          0,
          0,
          0,
          1
        ],
        "metallicFactor": 0.5,
        "roughnessFactor": 0.5
      }
    },
    {
      "pbrMetallicRoughness": {
        "metallicFactor": 0.5,
        "roughnessFactor": 0.5
      }
    },
    {
      "pbrMetallicRoughness": {
        "baseColorFactor": [
          0,
          0,
          0,
          1
        ],
        "metallicFactor": 0.5,
        "roughnessFactor": 0.5
      }
    },
    {
      "pbrMetallicRoughness": {
        "baseColorFactor": [
          1,
          0.8784313725490196,
          0.8784313725490196,
          1
        ],
        "metallicFactor": 0.5,
        "roughnessFactor": 0.5
      },
      "doubleSided": true
    }
  ],
  "meshes": [
    {
      "primitives": [
        {
          "mode": 4,
          "attributes": {
            "POSITION": 0,
            "NORMAL": 1,
            "COLOR_0": 2
          },
          "indices": 3,
          "material": 0
        },
        {
          "mode": 4,
          "attributes": {
            "POSITION": 0,
            "NORMAL": 1,
            "COLOR_0": 2
          },
          "indices": 3,
          "material": 1
        },
        {
          "mode": 4,
          "attributes": {
            "POSITION": 0,
            "NORMAL": 1,
            "COLOR_0": 2
          },
          "indices": 4,
          "material": 2
        }
      ]
    },
    {
      "primitives": [
        {
          "mode": 1,
          "attributes": {
            "POSITION": 0,
            "COLOR_0": 2
          },
          "indices": 5,
          "material": 3
        }
      ]
    },
    {
      "primitives": [
        {
          "mode": 0,
          "attributes": {
            "POSITION": 0,
            "COLOR_0": 2
          },
          "material": 4
        }
      ]
    },
    {
      "primitives": [
        {
          "mode": 0,
          "attributes": {
            "POSITION": 6
          },
          "indices": 7,
          "material": 5
        }
      ]
    },
    {
      "primitives": [
        {
          "mode": 4,
          "attributes": {
            "POSITION": 8,
            "NORMAL": 9,
            "TEXCOORD_0": 10
          },
          "indices": 11,
          "material": 6
        }
      ]
    }
  ],
  "extensions": {
    "KHR_lights_punctual": {
      "lights": [
        {
          "color": [
            1,
            1,
            1
          ],
          "intensity": 0.78,
          "type": "directional"
        }
      ]
    }
  },
  "extensionsUsed": [
    "KHR_lights_punctual"
  ]
}